<?xml version="1.0" encoding="utf-8"?>
<!-- Generator: Adobe Illustrator 26.5.0, SVG Export Plug-In . SVG Version: 6.00 Build 0)  -->
<svg version="1.1" id="Capa_1" xmlns="http://www.w3.org/2000/svg" xmlns:xlink="http://www.w3.org/1999/xlink" x="0px" y="0px"
	 viewBox="0 0 456.6 456.6" style="enable-background:new 0 0 456.6 456.6;" xml:space="preserve">
<style type="text/css">
	.st0{fill:#FFFFFF;}
</style>
<g>
	<g>
		<path class="st0" d="M345.8,339.5c-29.3,0-53.1,23.7-53.1,53s23.7,53.1,53,53.1c29.3,0,53.1-23.7,53.1-53c0,0,0,0,0-0.1
			C398.8,363.3,375.1,339.5,345.8,339.5z"/>
	</g>
</g>
<g>
	<g>
		<path class="st0" d="M440,85.2c-1.3-0.2-2.6-0.4-3.9-0.4H112.8l-5.1-34.3c-3.2-22.7-22.6-39.7-45.6-39.7H20.5
			C9.2,10.9,0,20.1,0,31.4s9.2,20.5,20.5,20.5h41.7c2.6,0,4.8,1.9,5.1,4.5l31.5,216.2c4.3,27.5,28,47.7,55.8,47.8h213
			c26.8,0,49.9-18.8,55.2-45l33.3-166.1C458.3,98.1,451.1,87.4,440,85.2z"/>
	</g>
</g>
<g>
	<g>
		<path class="st0" d="M215.7,390.3c-1.2-28.5-24.7-50.9-53.2-50.8l0,0c-29.3,1.2-52.1,25.9-50.9,55.2c1.1,28.1,24,50.5,52.1,50.9
			h1.3C194.3,444.4,217,419.6,215.7,390.3z"/>
	</g>
</g>
</svg>
