<?xml version="1.0" encoding="utf-8"?>
<!-- Generator: Adobe Illustrator 26.5.0, SVG Export Plug-In . SVG Version: 6.00 Build 0)  -->
<svg version="1.1" id="Layer_1" xmlns="http://www.w3.org/2000/svg" xmlns:xlink="http://www.w3.org/1999/xlink" x="0px" y="0px"
	 viewBox="0 0 100 100" style="enable-background:new 0 0 100 100;" xml:space="preserve">
<style type="text/css">
	.st0{fill:#CF9175;}
</style>
<g>
	<path class="st0" d="M82.4,100H17.6C7.9,100,0,92.1,0,82.4V17.6C0,7.9,7.9,0,17.6,0h64.7C92.1,0,100,7.9,100,17.6v64.7
		C100,92.1,92.1,100,82.4,100z"/>
	<path d="M74.6,36.4c2.6,2.6,3.9,6.2,3.9,10.8v20.2h-8.7v-19c0-2.7-0.7-4.8-2.1-6.2c-1.4-1.4-3.2-2.1-5.6-2.1
		c-2.4,0-4.2,0.7-5.6,2.1s-2.1,3.5-2.1,6.2v19h-8.7v-19c0-2.7-0.7-4.8-2.1-6.2c-1.4-1.4-3.2-2.1-5.6-2.1c-2.4,0-4.3,0.7-5.7,2.1
		s-2.1,3.5-2.1,6.2v19h-8.7V33h8.7v4.2c1.1-1.5,2.6-2.6,4.3-3.4c1.8-0.8,3.7-1.2,5.8-1.2c2.7,0,5.1,0.6,7.2,1.7
		c2.1,1.1,3.7,2.8,4.9,4.9c1.1-2,2.7-3.6,4.9-4.8c2.1-1.2,4.4-1.8,6.9-1.8C68.6,32.5,72,33.8,74.6,36.4z"/>
</g>
</svg>
