<?xml version="1.0" encoding="utf-8"?>
<!-- Generator: Adobe Illustrator 26.5.0, SVG Export Plug-In . SVG Version: 6.00 Build 0)  -->
<svg version="1.1" id="Layer_1" xmlns="http://www.w3.org/2000/svg" xmlns:xlink="http://www.w3.org/1999/xlink" x="0px" y="0px"
	 viewBox="0 0 498.5 125.4" style="enable-background:new 0 0 498.5 125.4;" xml:space="preserve">
<style type="text/css">
	.st0{fill:#FFFFFF;}
</style>
<g>
	<g>
		<path class="st0" d="M145.9,12.3c1.8,1.8,2.7,4.3,2.7,7.5v14h-6.1V20.7c0-1.9-0.5-3.3-1.4-4.3s-2.2-1.5-3.9-1.5s-2.9,0.5-3.9,1.5
			s-1.4,2.4-1.4,4.3v13.2h-6.1V20.7c0-1.9-0.5-3.3-1.4-4.3s-2.2-1.5-3.9-1.5c-1.7,0-3,0.5-4,1.5s-1.4,2.4-1.4,4.3v13.2H109V9.9h6.1
			v2.9c0.8-1,1.8-1.8,3-2.4c1.2-0.6,2.6-0.9,4-0.9c1.9,0,3.5,0.4,5,1.2c1.5,0.8,2.6,1.9,3.4,3.4c0.8-1.4,1.9-2.5,3.4-3.3
			c1.5-0.8,3.1-1.3,4.8-1.3C141.7,9.6,144.1,10.5,145.9,12.3z"/>
		<path class="st0" d="M158.6,6.1c-0.7-0.7-1.1-1.5-1.1-2.5c0-1,0.4-1.9,1.1-2.5c0.7-0.7,1.6-1,2.7-1c1.1,0,2,0.3,2.7,1
			c0.7,0.7,1.1,1.5,1.1,2.5c0,1-0.4,1.9-1.1,2.5c-0.7,0.7-1.6,1-2.7,1C160.2,7.1,159.3,6.8,158.6,6.1z M164.2,9.9v23.9h-6.1V9.9
			H164.2z"/>
		<path class="st0" d="M194.3,12.3c1.8,1.8,2.6,4.3,2.6,7.5v14h-6.1V20.7c0-1.9-0.5-3.4-1.4-4.4s-2.2-1.5-3.9-1.5
			c-1.7,0-3,0.5-4,1.5c-1,1-1.4,2.5-1.4,4.4v13.2h-6.1V9.9h6.1v3c0.8-1,1.8-1.9,3.1-2.4c1.3-0.6,2.6-0.9,4.1-0.9
			C190.2,9.6,192.5,10.5,194.3,12.3z"/>
		<path class="st0" d="M226.8,12.3c1.8,1.8,2.6,4.3,2.6,7.5v14h-6.1V20.7c0-1.9-0.5-3.4-1.4-4.4s-2.2-1.5-3.9-1.5
			c-1.7,0-3,0.5-4,1.5c-1,1-1.4,2.5-1.4,4.4v13.2h-6.1V9.9h6.1v3c0.8-1,1.8-1.9,3.1-2.4c1.3-0.6,2.6-0.9,4.1-0.9
			C222.7,9.6,225,10.5,226.8,12.3z"/>
		<path class="st0" d="M238.9,15.4c1-1.9,2.3-3.3,3.9-4.3c1.7-1,3.5-1.5,5.6-1.5c1.8,0,3.3,0.4,4.7,1.1c1.3,0.7,2.4,1.6,3.2,2.7V9.9
			h6.1v23.9h-6.1v-3.5c-0.8,1.1-1.9,2.1-3.2,2.8c-1.4,0.7-2.9,1.1-4.7,1.1c-2,0-3.9-0.5-5.5-1.6c-1.7-1-3-2.5-3.9-4.4
			c-1-1.9-1.4-4.1-1.4-6.5C237.5,19.4,238,17.3,238.9,15.4z M255.5,18.1c-0.6-1.1-1.4-1.9-2.3-2.4s-2-0.8-3.2-0.8
			c-1.1,0-2.2,0.3-3.1,0.8c-1,0.5-1.7,1.3-2.3,2.4c-0.6,1.1-0.9,2.3-0.9,3.7c0,1.4,0.3,2.7,0.9,3.8s1.4,1.9,2.3,2.5
			c1,0.6,2,0.9,3.1,0.9c1.1,0,2.2-0.3,3.2-0.8s1.8-1.4,2.3-2.4c0.6-1.1,0.9-2.3,0.9-3.8S256,19.2,255.5,18.1z"/>
		<path class="st0" d="M292.5,37.8c0,2.7-0.7,4.6-2,5.7c-1.3,1.2-3.2,1.8-5.6,1.8h-2.7v-5.1h1.7c0.9,0,1.6-0.2,1.9-0.5
			c0.4-0.4,0.6-0.9,0.6-1.8V9.9h6.1V37.8z M286.8,6.1c-0.7-0.7-1.1-1.5-1.1-2.5c0-1,0.4-1.9,1.1-2.5c0.7-0.7,1.6-1,2.7-1
			c1.1,0,1.9,0.3,2.6,1c0.7,0.7,1,1.5,1,2.5c0,1-0.3,1.9-1,2.5c-0.7,0.7-1.6,1-2.6,1C288.4,7.1,287.5,6.8,286.8,6.1z"/>
		<path class="st0" d="M324.9,9.9v23.9h-6.1v-3c-0.8,1-1.8,1.9-3,2.4c-1.3,0.6-2.6,0.9-4.1,0.9c-1.9,0-3.5-0.4-5-1.2
			c-1.4-0.8-2.6-2-3.4-3.5c-0.8-1.5-1.2-3.4-1.2-5.5v-14h6.1v13.2c0,1.9,0.5,3.4,1.4,4.4c1,1,2.2,1.5,3.9,1.5c1.7,0,3-0.5,3.9-1.5
			c1-1,1.4-2.5,1.4-4.4V9.9H324.9z"/>
		<path class="st0" d="M355,12.3c1.8,1.8,2.6,4.3,2.6,7.5v14h-6.1V20.7c0-1.9-0.5-3.4-1.4-4.4s-2.2-1.5-3.9-1.5c-1.7,0-3,0.5-4,1.5
			c-1,1-1.4,2.5-1.4,4.4v13.2h-6.1V9.9h6.1v3c0.8-1,1.8-1.9,3.1-2.4c1.3-0.6,2.6-0.9,4.1-0.9C350.9,9.6,353.2,10.5,355,12.3z"/>
		<path class="st0" d="M389.3,23.7h-17.5c0.1,1.7,0.7,3.1,1.8,4.1c1.1,1,2.4,1.5,3.9,1.5c2.2,0,3.8-1,4.8-2.9h6.5
			c-0.7,2.3-2,4.2-4,5.7c-2,1.5-4.4,2.2-7.2,2.2c-2.3,0-4.4-0.5-6.2-1.5c-1.8-1-3.3-2.5-4.3-4.3c-1-1.9-1.5-4-1.5-6.5
			c0-2.5,0.5-4.7,1.5-6.5c1-1.9,2.4-3.3,4.2-4.3c1.8-1,3.9-1.5,6.3-1.5c2.3,0,4.3,0.5,6.1,1.5c1.8,1,3.2,2.4,4.2,4.2
			s1.5,3.9,1.5,6.2C389.5,22.3,389.4,23,389.3,23.7z M383.2,19.7c0-1.6-0.6-2.8-1.7-3.7c-1.1-0.9-2.4-1.4-4-1.4
			c-1.5,0-2.8,0.5-3.8,1.4c-1,0.9-1.6,2.2-1.9,3.8H383.2z"/>
	</g>
	<rect y="61.2" class="st0" width="498.5" height="1.5"/>
	<g>
		<path class="st0" d="M64.8,125.1L50.6,110v15.1h-3.3V92.4h3.3v15.3l14.2-15.3h4.2l-15.3,16.3l15.4,16.4H64.8z"/>
		<path class="st0" d="M95.5,125.1l-8.1-13.7h-6v13.7h-3.3V92.4h9.8c3.6,0,6.4,0.9,8.3,2.6c1.9,1.7,2.8,4,2.8,6.9
			c0,2.4-0.7,4.4-2,6.1c-1.4,1.7-3.4,2.8-6,3.3l8.4,13.9H95.5z M81.4,108.8H88c2.6,0,4.5-0.6,5.8-1.9c1.3-1.2,1.9-2.9,1.9-5
			c0-2.2-0.6-3.8-1.9-5c-1.2-1.2-3.2-1.8-5.9-1.8h-6.5V108.8z"/>
		<path class="st0" d="M128.7,117.3h-14.9l-2.9,7.8h-3.5l11.9-32.3h3.7l11.9,32.3h-3.5L128.7,117.3z M127.7,114.6l-6.5-17.7
			l-6.5,17.7H127.7z"/>
		<path class="st0" d="M169.1,125.1h-3.3l-18.1-27.5v27.5h-3.3V92.4h3.3l18.1,27.5V92.4h3.3V125.1z"/>
		<path class="st0" d="M185,124.3c-1.6-0.7-2.9-1.8-3.9-3.1s-1.4-2.8-1.5-4.5h3.5c0.2,1.6,0.9,3,2.1,4.2c1.2,1.2,3.1,1.8,5.5,1.8
			c2.2,0,4-0.6,5.3-1.7c1.3-1.1,1.9-2.6,1.9-4.3c0-1.4-0.4-2.5-1.1-3.4c-0.7-0.9-1.6-1.5-2.7-1.9c-1.1-0.4-2.5-0.9-4.4-1.4
			c-2.2-0.6-3.9-1.2-5.2-1.7c-1.3-0.6-2.4-1.4-3.3-2.6c-0.9-1.2-1.4-2.8-1.4-4.8c0-1.7,0.4-3.2,1.3-4.5c0.9-1.3,2.1-2.4,3.7-3.1
			c1.6-0.7,3.4-1.1,5.5-1.1c3,0,5.5,0.7,7.3,2.2c1.9,1.5,2.9,3.4,3.2,5.7h-3.6c-0.2-1.3-1-2.5-2.2-3.6c-1.2-1-2.9-1.6-5.1-1.6
			c-2,0-3.6,0.5-4.9,1.6c-1.3,1-2,2.5-2,4.3c0,1.4,0.4,2.5,1.1,3.3c0.7,0.8,1.6,1.5,2.7,1.9c1.1,0.4,2.5,0.9,4.4,1.4
			c2.1,0.6,3.8,1.2,5.1,1.8s2.4,1.5,3.3,2.6c0.9,1.2,1.4,2.8,1.4,4.8c0,1.5-0.4,3-1.2,4.4c-0.8,1.4-2,2.5-3.6,3.3
			c-1.6,0.8-3.5,1.3-5.7,1.3C188.5,125.4,186.6,125.1,185,124.3z"/>
		<path class="st0" d="M216,124.3c-1.6-0.7-2.9-1.8-3.9-3.1s-1.4-2.8-1.5-4.5h3.5c0.2,1.6,0.9,3,2.1,4.2c1.2,1.2,3.1,1.8,5.5,1.8
			c2.2,0,4-0.6,5.3-1.7c1.3-1.1,1.9-2.6,1.9-4.3c0-1.4-0.4-2.5-1.1-3.4c-0.7-0.9-1.6-1.5-2.7-1.9c-1.1-0.4-2.5-0.9-4.4-1.4
			c-2.2-0.6-3.9-1.2-5.2-1.7c-1.3-0.6-2.4-1.4-3.3-2.6c-0.9-1.2-1.4-2.8-1.4-4.8c0-1.7,0.4-3.2,1.3-4.5c0.9-1.3,2.1-2.4,3.7-3.1
			c1.6-0.7,3.4-1.1,5.5-1.1c3,0,5.5,0.7,7.3,2.2c1.9,1.5,2.9,3.4,3.2,5.7h-3.6c-0.2-1.3-1-2.5-2.2-3.6c-1.2-1-2.9-1.6-5.1-1.6
			c-2,0-3.6,0.5-4.9,1.6c-1.3,1-2,2.5-2,4.3c0,1.4,0.4,2.5,1.1,3.3c0.7,0.8,1.6,1.5,2.7,1.9c1.1,0.4,2.5,0.9,4.4,1.4
			c2.1,0.6,3.8,1.2,5.1,1.8s2.4,1.5,3.3,2.6c0.9,1.2,1.4,2.8,1.4,4.8c0,1.5-0.4,3-1.2,4.4c-0.8,1.4-2,2.5-3.6,3.3
			c-1.6,0.8-3.5,1.3-5.7,1.3C219.5,125.4,217.6,125.1,216,124.3z"/>
		<path class="st0" d="M246,92.4v32.7h-3.3V92.4H246z"/>
		<path class="st0" d="M275.1,125.1L260.9,110v15.1h-3.3V92.4h3.3v15.3l14.2-15.3h4.2l-15.3,16.3l15.4,16.4H275.1z"/>
		<path class="st0" d="M291.5,92.4V113c0,3.2,0.8,5.6,2.3,7.2c1.5,1.6,3.7,2.3,6.3,2.3c2.7,0,4.8-0.8,6.3-2.3c1.5-1.5,2.3-4,2.3-7.2
			V92.4h3.3v20.5c0,4.1-1.1,7.3-3.3,9.4c-2.2,2.1-5.1,3.1-8.6,3.1s-6.4-1-8.6-3.1c-2.2-2.1-3.3-5.2-3.3-9.4V92.4H291.5z"/>
		<path class="st0" d="M340.9,125.1l-8.1-13.7h-6v13.7h-3.3V92.4h9.8c3.6,0,6.4,0.9,8.3,2.6c1.9,1.7,2.8,4,2.8,6.9
			c0,2.4-0.7,4.4-2,6.1c-1.4,1.7-3.4,2.8-6,3.3l8.4,13.9H340.9z M326.8,108.8h6.6c2.6,0,4.5-0.6,5.8-1.9c1.3-1.2,1.9-2.9,1.9-5
			c0-2.2-0.6-3.8-1.9-5c-1.2-1.2-3.2-1.8-5.9-1.8h-6.5V108.8z"/>
		<path class="st0" d="M359.4,124.3c-1.6-0.7-2.9-1.8-3.9-3.1s-1.4-2.8-1.5-4.5h3.5c0.2,1.6,0.9,3,2.1,4.2c1.2,1.2,3.1,1.8,5.5,1.8
			c2.2,0,4-0.6,5.3-1.7c1.3-1.1,1.9-2.6,1.9-4.3c0-1.4-0.4-2.5-1.1-3.4c-0.7-0.9-1.6-1.5-2.7-1.9c-1.1-0.4-2.5-0.9-4.4-1.4
			c-2.2-0.6-3.9-1.2-5.2-1.7c-1.3-0.6-2.4-1.4-3.3-2.6c-0.9-1.2-1.4-2.8-1.4-4.8c0-1.7,0.4-3.2,1.3-4.5c0.9-1.3,2.1-2.4,3.7-3.1
			c1.6-0.7,3.4-1.1,5.5-1.1c3,0,5.5,0.7,7.3,2.2c1.9,1.5,2.9,3.4,3.2,5.7h-3.6c-0.2-1.3-1-2.5-2.2-3.6c-1.2-1-2.9-1.6-5.1-1.6
			c-2,0-3.6,0.5-4.9,1.6c-1.3,1-2,2.5-2,4.3c0,1.4,0.4,2.5,1.1,3.3c0.7,0.8,1.6,1.5,2.7,1.9c1.1,0.4,2.5,0.9,4.4,1.4
			c2.1,0.6,3.8,1.2,5.1,1.8s2.4,1.5,3.3,2.6c0.9,1.2,1.4,2.8,1.4,4.8c0,1.5-0.4,3-1.2,4.4c-0.8,1.4-2,2.5-3.6,3.3
			c-1.6,0.8-3.5,1.3-5.7,1.3C363,125.4,361.1,125.1,359.4,124.3z"/>
		<path class="st0" d="M390.4,124.3c-1.6-0.7-2.9-1.8-3.9-3.1s-1.4-2.8-1.5-4.5h3.5c0.2,1.6,0.9,3,2.1,4.2c1.2,1.2,3.1,1.8,5.5,1.8
			c2.2,0,4-0.6,5.3-1.7c1.3-1.1,1.9-2.6,1.9-4.3c0-1.4-0.4-2.5-1.1-3.4c-0.7-0.9-1.6-1.5-2.7-1.9c-1.1-0.4-2.5-0.9-4.4-1.4
			c-2.2-0.6-3.9-1.2-5.2-1.7c-1.3-0.6-2.4-1.4-3.3-2.6c-0.9-1.2-1.4-2.8-1.4-4.8c0-1.7,0.4-3.2,1.3-4.5c0.9-1.3,2.1-2.4,3.7-3.1
			c1.6-0.7,3.4-1.1,5.5-1.1c3,0,5.5,0.7,7.3,2.2c1.9,1.5,2.9,3.4,3.2,5.7h-3.6c-0.2-1.3-1-2.5-2.2-3.6c-1.2-1-2.9-1.6-5.1-1.6
			c-2,0-3.6,0.5-4.9,1.6c-1.3,1-2,2.5-2,4.3c0,1.4,0.4,2.5,1.1,3.3c0.7,0.8,1.6,1.5,2.7,1.9c1.1,0.4,2.5,0.9,4.4,1.4
			c2.1,0.6,3.8,1.2,5.1,1.8s2.4,1.5,3.3,2.6c0.9,1.2,1.4,2.8,1.4,4.8c0,1.5-0.4,3-1.2,4.4c-0.8,1.4-2,2.5-3.6,3.3
			c-1.6,0.8-3.5,1.3-5.7,1.3C393.9,125.4,392,125.1,390.4,124.3z"/>
		<path class="st0" d="M420.4,92.4v32.7h-3.3V92.4H420.4z"/>
		<path class="st0" d="M451.2,92.4v2.7h-9.1v30h-3.3v-30h-9.1v-2.7H451.2z"/>
	</g>
</g>
</svg>
